<?xml version="1.0" encoding="UTF-8"?>
<svg id="Layer_1" xmlns="http://www.w3.org/2000/svg" version="1.1" viewBox="0 0 8 8">
  <!-- Generator: Adobe Illustrator 29.7.1, SVG Export Plug-In . SVG Version: 2.1.1 Build 8)  -->
  <defs>
    <style>
      .st0 {
        fill: #4dabf7;
      }

      .st1 {
        fill: #69db7c;
      }

      .st2 {
        fill: #f8f9fa;
      }

      .st3 {
        fill: #ffd43b;
      }

      .st4 {
        fill: #ff8787;
      }
    </style>
  </defs>
  <circle class="st2" cx="4" cy="4" r="4"/>
  <g>
    <path class="st4" d="M2.8,5.9H0c-.2,0-.4-.2-.4-.4s.2-.4.4-.4h2.8c.2,0,.4-.2.4-.4s-.2-.4-.4-.4c-.6,0-1.1-.5-1.1-1.1s.5-1.1,1.1-1.1h5.2c.2,0,.4.2.4.4s-.2.4-.4.4H2.8c-.2,0-.4.2-.4.4s.2.4.4.4c.6,0,1.1.5,1.1,1.1s-.5,1.1-1.1,1.1Z"/>
    <path class="st1" d="M6,8.4c-.2,0-.4-.2-.4-.4v-2.1h-.4c-.6,0-1.1-.5-1.1-1.1v-.5c0-.6.5-1.1,1.1-1.1s1.1.5,1.1,1.1v.9h1.6c.2,0,.4.2.4.4s-.2.4-.4.4h-1.6v2.1c0,.2-.2.4-.4.4ZM5.2,3.9c-.2,0-.4.2-.4.4v.5c0,.2.2.4.4.4h.4v-.9c0-.2-.2-.4-.4-.4Z"/>
    <path class="st0" d="M8,6.9H0c-.2,0-.4-.2-.4-.4s.2-.4.4-.4h8c.2,0,.4.2.4.4s-.2.4-.4.4Z"/>
    <path class="st3" d="M8,1.9H0c-.2,0-.4-.2-.4-.4s.2-.4.4-.4h8c.2,0,.4.2.4.4s-.2.4-.4.4Z"/>
  </g>
</svg>