<svg xmlns="http://www.w3.org/2000/svg" version="1.1" xmlns:xlink="http://www.w3.org/1999/xlink" width="1000" height="1000"><style>
    #light-icon {
      display: inline;
    }
    #dark-icon {
      display: none;
    }

    @media (prefers-color-scheme: dark) {
      #light-icon {
        display: none;
      }
      #dark-icon {
        display: inline;
      }
    }
  </style><g id="light-icon"><svg xmlns="http://www.w3.org/2000/svg" version="1.1" xmlns:xlink="http://www.w3.org/1999/xlink" width="1000" height="1000"><g clip-path="url(#SvgjsClipPath1042)"><rect width="1000" height="1000" fill="#f8f9fa"></rect><g transform="matrix(87.5,0,0,87.5,150,150)"><svg xmlns="http://www.w3.org/2000/svg" version="1.1" xmlns:xlink="http://www.w3.org/1999/xlink" width="8" height="8"><svg id="Layer_1" xmlns="http://www.w3.org/2000/svg" version="1.1" viewBox="0 0 8 8">
  <!-- Generator: Adobe Illustrator 29.7.1, SVG Export Plug-In . SVG Version: 2.1.1 Build 8)  -->
  <defs>
    <style>
      .st0 {
        fill: #4dabf7;
      }

      .st1 {
        fill: #69db7c;
      }

      .st2 {
        fill: #f8f9fa;
      }

      .st3 {
        fill: #ffd43b;
      }

      .st4 {
        fill: #ff8787;
      }
    </style>
  <clipPath id="SvgjsClipPath1042"><rect width="1000" height="1000" x="0" y="0" rx="500" ry="500"></rect></clipPath></defs>
  <circle class="st2" cx="4" cy="4" r="4"></circle>
  <g>
    <path class="st4" d="M2.8,5.9H0c-.2,0-.4-.2-.4-.4s.2-.4.4-.4h2.8c.2,0,.4-.2.4-.4s-.2-.4-.4-.4c-.6,0-1.1-.5-1.1-1.1s.5-1.1,1.1-1.1h5.2c.2,0,.4.2.4.4s-.2.4-.4.4H2.8c-.2,0-.4.2-.4.4s.2.4.4.4c.6,0,1.1.5,1.1,1.1s-.5,1.1-1.1,1.1Z"></path>
    <path class="st1" d="M6,8.4c-.2,0-.4-.2-.4-.4v-2.1h-.4c-.6,0-1.1-.5-1.1-1.1v-.5c0-.6.5-1.1,1.1-1.1s1.1.5,1.1,1.1v.9h1.6c.2,0,.4.2.4.4s-.2.4-.4.4h-1.6v2.1c0,.2-.2.4-.4.4ZM5.2,3.9c-.2,0-.4.2-.4.4v.5c0,.2.2.4.4.4h.4v-.9c0-.2-.2-.4-.4-.4Z"></path>
    <path class="st0" d="M8,6.9H0c-.2,0-.4-.2-.4-.4s.2-.4.4-.4h8c.2,0,.4.2.4.4s-.2.4-.4.4Z"></path>
    <path class="st3" d="M8,1.9H0c-.2,0-.4-.2-.4-.4s.2-.4.4-.4h8c.2,0,.4.2.4.4s-.2.4-.4.4Z"></path>
  </g>
</svg></svg></g></g></svg></g><g id="dark-icon"><svg xmlns="http://www.w3.org/2000/svg" version="1.1" xmlns:xlink="http://www.w3.org/1999/xlink" width="1000" height="1000"><g clip-path="url(#SvgjsClipPath1043)"><rect width="1000" height="1000" fill="#495057"></rect><g transform="matrix(87.5,0,0,87.5,150,150)"><svg xmlns="http://www.w3.org/2000/svg" version="1.1" xmlns:xlink="http://www.w3.org/1999/xlink" width="8" height="8"><svg id="Layer_1" xmlns="http://www.w3.org/2000/svg" version="1.1" viewBox="0 0 8 8">
  <!-- Generator: Adobe Illustrator 29.7.1, SVG Export Plug-In . SVG Version: 2.1.1 Build 8)  -->
  <defs>
    <style>
      .st0 {
        fill: #4dabf7;
      }

      .st1 {
        fill: #69db7c;
      }

      .st2 {
        fill: #f8f9fa;
      }

      .st3 {
        fill: #ffd43b;
      }

      .st4 {
        fill: #ff8787;
      }
    </style>
  <clipPath id="SvgjsClipPath1043"><rect width="1000" height="1000" x="0" y="0" rx="500" ry="500"></rect></clipPath></defs>
  <circle class="st2" cx="4" cy="4" r="4"></circle>
  <g>
    <path class="st4" d="M2.8,5.9H0c-.2,0-.4-.2-.4-.4s.2-.4.4-.4h2.8c.2,0,.4-.2.4-.4s-.2-.4-.4-.4c-.6,0-1.1-.5-1.1-1.1s.5-1.1,1.1-1.1h5.2c.2,0,.4.2.4.4s-.2.4-.4.4H2.8c-.2,0-.4.2-.4.4s.2.4.4.4c.6,0,1.1.5,1.1,1.1s-.5,1.1-1.1,1.1Z"></path>
    <path class="st1" d="M6,8.4c-.2,0-.4-.2-.4-.4v-2.1h-.4c-.6,0-1.1-.5-1.1-1.1v-.5c0-.6.5-1.1,1.1-1.1s1.1.5,1.1,1.1v.9h1.6c.2,0,.4.2.4.4s-.2.4-.4.4h-1.6v2.1c0,.2-.2.4-.4.4ZM5.2,3.9c-.2,0-.4.2-.4.4v.5c0,.2.2.4.4.4h.4v-.9c0-.2-.2-.4-.4-.4Z"></path>
    <path class="st0" d="M8,6.9H0c-.2,0-.4-.2-.4-.4s.2-.4.4-.4h8c.2,0,.4.2.4.4s-.2.4-.4.4Z"></path>
    <path class="st3" d="M8,1.9H0c-.2,0-.4-.2-.4-.4s.2-.4.4-.4h8c.2,0,.4.2.4.4s-.2.4-.4.4Z"></path>
  </g>
</svg></svg></g></g></svg></g></svg>